Coordinates
version=1
nRows=11
nColumns=42
inDegrees=yes

Units are S.I. units (second, meters, Newtons, ...)
If the header above contains a line with 'inDegrees', this indicates whether rotational values are in degrees (yes) or radians (no).

endheader
time	pelvis_tilt	pelvis_list	pelvis_rotation	pelvis_tx	pelvis_ty	pelvis_tz	hip_flexion_r	hip_adduction_r	hip_rotation_r	knee_angle_r	knee_adduction_r	knee_angle_r_beta	ankle_angle_r	subtalar_angle_r	mtp_angle_r	hip_flexion_l	hip_adduction_l	hip_rotation_l	knee_angle_l	knee_adduction_l	knee_angle_l_beta	ankle_angle_l	subtalar_angle_l	mtp_angle_l	lumbar_extension	lumbar_bending	lumbar_rotation	arm_flex_r	arm_add_r	arm_rot_r	elbow_flex_r	pro_sup_r	wrist_flex_r	wrist_dev_r	arm_flex_l	arm_add_l	arm_rot_l	elbow_flex_l	pro_sup_l	wrist_flex_l	wrist_dev_l
      1.75000000	      4.72897773	      0.08023153	     12.78663281	     -0.64794487	      0.87701223	     -0.18338561	     16.07477849	     -6.13741657	    -23.26800230	     28.67406689	     -3.10402072	      0.50045688	     12.46949824	     23.92144538	     -7.67002902	      0.92753305	     -0.00737163	     -0.10153503	     34.68997299	     -4.22514485	      0.60545425	     23.48670245	     20.10026106	     -7.67002902	    -28.05906060	     11.85631005	     -4.57321887	      0.78199684	    -14.65350023	    -16.36288554	     49.10032408	     90.00000001	      0.00000000	      0.00000000	     19.39497820	     -8.64090103	     33.57777043	     48.80228566	     90.00000001	      0.00000000	      0.00000000
      1.76000000	      4.55304941	      0.17961568	     12.69233395	     -0.64407902	      0.87766628	     -0.18153411	     15.94383956	     -6.13026465	    -23.37880173	     28.62621396	     -3.05598819	      0.49962169	     12.52011778	     23.92205912	     -7.66955006	      0.88660451	     -0.05296989	     -0.11098919	     34.75277594	     -4.16845817	      0.60655036	     23.35104340	     20.08501133	     -7.66955006	    -27.85743211	     11.71460154	     -4.52259018	      1.01608337	    -14.66873149	    -16.32876373	     49.22952163	     90.00000001	      0.00000000	      0.00000000	     19.13157655	     -8.58975432	     33.64414617	     48.76783205	     90.00000001	      0.00000000	      0.00000000
      1.77000000	      4.40295029	      0.28603701	     12.58678123	     -0.64012438	      0.87837936	     -0.17960901	     15.74886567	     -6.11481569	    -23.53937534	     28.51200387	     -3.01535161	      0.49762834	     12.62550283	     23.97341030	     -7.66903709	      0.82927968	     -0.13401265	     -0.15772177	     34.84113510	     -4.06534025	      0.60809252	     23.09368471	     20.05450173	     -7.66903709	    -27.66372038	     11.55549889	     -4.52942323	      1.27772493	    -14.64418917	    -16.26566051	     49.39653675	     90.00000001	      0.00000000	      0.00000000	     18.84763035	     -8.59878206	     33.73290414	     48.70870908	     90.00000001	      0.00000000	      0.00000000
      1.78000000	      4.83531619	      0.41429399	     12.71152420	     -0.63567589	      0.88005505	     -0.17783910	     14.63570331	     -5.96000612	    -24.73503597	     27.85424690	     -3.36115595	      0.48614832	     13.12563662	     26.34059766	     -7.66175740	      0.05048846	     -0.41799898	      0.04047983	     34.75881247	     -3.79750970	      0.60665572	     21.82266099	     19.46962121	     -7.66175740	    -28.02861202	     11.55295586	     -4.69191070	      1.40847381	    -14.73437397	    -15.65318687	     49.79317785	     90.00000001	      0.00000000	      0.00000000	     18.73384554	     -8.87588920	     34.52757687	     48.87575562	     90.00000001	      0.00000000	      0.00000000
      1.79000000	      4.67672558	      0.53506248	     12.56446592	     -0.63174973	      0.88073903	     -0.17591151	     14.47281438	     -5.96236140	    -24.86471103	     27.78636202	     -3.31706981	      0.48496350	     13.18273185	     26.34464067	     -7.66125374	      0.03799296	     -0.43713592	      0.02510231	     34.91229482	     -3.72499462	      0.60933449	     21.63867035	     19.44391936	     -7.66125374	    -27.83218314	     11.37079337	     -4.66734998	      1.66226284	    -14.72638927	    -15.62123004	     49.93318089	     90.00000001	      0.00000000	      0.00000000	     18.46689151	     -8.85113831	     34.59465707	     48.82683132	     90.00000001	      0.00000000	      0.00000000
      1.80000000	      4.82438834	      0.62126085	     12.66367704	     -0.62762490	      0.88186416	     -0.17408079	     13.79642863	     -5.83128126	    -25.79849238	     27.31597958	     -3.59053973	      0.47675378	     13.57900441	     28.00300883	     -7.65530184	     -0.18655676	     -0.69004990	      0.14768866	     35.25311356	     -3.48823467	      0.61528290	     20.46625610	     18.81992585	     -7.65530184	    -27.89440415	     11.34523061	     -4.83103381	      1.85602067	    -14.73694113	    -15.29331196	     50.19227377	     90.00000001	      0.00000000	      0.00000000	     18.32952685	     -9.05983385	     35.24053533	     48.92413617	     90.00000001	      0.00000000	      0.00000000
      1.81000000	      4.76356380	      0.80311909	     12.60341570	     -0.62373832	      0.88264187	     -0.17223885	     13.46251282	     -5.89957434	    -25.98961929	     27.16173812	     -3.50892098	      0.47406176	     13.70815392	     28.18483816	     -7.65432627	     -0.15520845	     -0.71842403	      0.06957877	     35.67788012	     -3.37305081	      0.62269648	     19.98749260	     18.74477045	     -7.65432627	    -27.79293989	     11.13776202	     -4.91470872	      2.11177112	    -14.68660405	    -15.23544375	     50.35230514	     90.00000001	      0.00000000	      0.00000000	     18.13092636	     -9.08707220	     35.36358527	     48.86312743	     90.00000001	      0.00000000	      0.00000000
      1.82000000	      4.75245230	      0.92872296	     12.57322817	     -0.61980595	      0.88345099	     -0.17043549	     13.04365626	     -5.88104347	    -26.23313371	     26.92698239	     -3.45004274	      0.46996450	     13.90154056	     28.51238514	     -7.65322755	     -0.09277901	     -0.81872278	      0.00611238	     36.23965795	     -3.29096499	      0.63250135	     19.22996646	     18.57358693	     -7.65322755	    -27.72232992	     11.01667441	     -5.00921860	      2.34932980	    -14.66696855	    -15.14088531	     50.51441845	     90.00000001	      0.00000000	      0.00000000	     17.95650433	     -9.11973125	     35.57920955	     48.85027335	     90.00000001	      0.00000000	      0.00000000
      1.83000000	      4.80309438	      0.90157866	     12.64554010	     -0.61580095	      0.88429700	     -0.16871479	     12.53695037	     -5.63901606	    -26.82834063	     26.53408150	     -3.58862658	      0.46310709	     14.11436808	     29.58198150	     -7.64915895	     -0.03245129	     -1.08604795	      0.16791962	     36.84024843	     -3.15665654	      0.64298363	     18.16370556	     17.87683748	     -7.64915895	    -27.65899853	     11.10086836	     -5.09058514	      2.51589067	    -14.74613128	    -14.88108924	     50.72209538	     90.00000001	      0.00000000	      0.00000000	     17.81889721	     -9.24568125	     36.23921144	     48.96459695	     90.00000001	      0.00000000	      0.00000000
      1.84000000	      4.87283573	      1.05159308	     12.63384516	     -0.61191286	      0.88510522	     -0.16701458	     12.02179934	     -5.67125508	    -26.95883345	     26.35269676	     -3.39666643	      0.45994133	     14.27001937	     29.84435049	     -7.64784821	      0.05190450	     -1.16327910	      0.13748214	     37.59513539	     -3.06898347	      0.65615890	     17.45240231	     17.70937855	     -7.64784821	    -27.66693777	     10.97938161	     -5.18239523	      2.74416829	    -14.72891773	    -14.81274043	     50.85290050	     90.00000001	      0.00000000	      0.00000000	     17.73065058	     -9.27871393	     36.43154062	     48.93440585	     90.00000001	      0.00000000	      0.00000000
      1.85000000	      4.93634839	      1.08654580	     12.69332410	     -0.60800267	      0.88588064	     -0.16537273	     11.48799275	     -5.52792013	    -27.09013102	     26.04082390	     -3.26355699	      0.45449812	     14.46487934	     30.13967054	     -7.64621454	      0.23083384	     -1.35745872	      0.14083847	     38.40860749	     -3.03399871	      0.67035666	     16.46244420	     17.39948449	     -7.64621454	    -27.64225116	     10.99048315	     -5.27128031	      2.94158698	    -14.75677534	    -14.72029506	     50.98694541	     90.00000001	      0.00000000	      0.00000000	     17.57116996	     -9.28212395	     36.75859636	     48.95745326	     90.00000001	      0.00000000	      0.00000000
